<?xml version="1.0"?>
<svg width="1024" height="1024" xmlns="http://www.w3.org/2000/svg" xmlns:svg="http://www.w3.org/2000/svg" class="icon">
 <defs>
  <style type="text/css"/>
 </defs>
 <g class="layer">
  <title>Layer 1</title>
  <rect fill="none" height="912.99999" id="svg_2" rx="31" ry="31" stroke="#7f7f7f" stroke-width="40" width="928.999974" x="44.999994" y="53.000076"/>
  <g id="svg_7" transform="matrix(1, 0, 0, 1, 0, 0)">
   <g id="svg_6">
    <path d="m806.597177,206.708677c0,38.362167 -137.048385,69.460851 -306.10614,69.460851m306.10614,-69.460851l0,0c0,38.362167 -137.048385,69.460851 -306.10614,69.460851c-169.057694,0 -306.106038,-31.098622 -306.106038,-69.460851m0,0l0,0c0,-38.362125 137.048343,-69.46083 306.106038,-69.46083c169.057755,0 306.10614,31.098706 306.10614,69.46083l0,277.84351c0,38.362125 -137.048385,69.460726 -306.10614,69.460726c-169.057694,0 -306.106038,-31.098601 -306.106038,-69.460726l0,-277.84351z" fill="none" id="svg_1" stroke="#7f0000" stroke-width="30"/>
    <path d="m807.270962,482.988501c0,38.362167 -137.048385,69.460851 -306.10614,69.460851m306.10614,-69.460851l0,0c0,38.362167 -137.048385,69.460851 -306.10614,69.460851c-169.057694,0 -306.106038,-31.098622 -306.106038,-69.460851m0,0l0,0c0,-38.362125 137.048343,-69.46083 306.106038,-69.46083c169.057755,0 306.10614,31.098706 306.10614,69.46083l0,277.84351c0,38.362125 -137.048385,69.460726 -306.10614,69.460726c-169.057694,0 -306.106038,-31.098601 -306.106038,-69.460726l0,-277.84351z" fill="none" id="svg_3" stroke="#7f0000" stroke-width="30"/>
   </g>
   <g id="svg_18">
    <circle cx="721.898591" cy="723.436597" fill="#ffffff" id="svg_5" r="142.458344" stroke="#7f0000" stroke-width="30"/>
    <path d="m792.780409,629.257861l-22.452903,-15.374402c-5.666306,-3.87432 -13.130702,-2.009442 -16.700341,4.163448l-8.851114,15.34549l42.95511,29.389901l8.85775,-15.338261c3.55637,-6.18012 1.857805,-14.319083 -3.8085,-18.186175l-0.000001,0zm-124.439772,136.71436l42.95511,29.389901l70.012716,-121.419468l-42.975015,-29.397129l-69.99281,121.426696zm-6.562033,37.340932l-0.948807,27.604533l22.419728,-12.91681l20.833958,-11.984372l-41.442326,-28.370723l-0.862553,25.667373l0,-0.000001z" fill="#7f0000" id="svg_16" stroke="#7f0000" stroke-width="0"/>
   </g>
  </g>
 </g>
</svg>