<?xml version="1.0"?>
<svg width="1024" height="1024" xmlns="http://www.w3.org/2000/svg" xmlns:svg="http://www.w3.org/2000/svg" class="icon">
 <defs>
  <style type="text/css"/>
 </defs>
 <g class="layer">
  <title>Layer 1</title>
  <g id="svg_3" transform="matrix(1, 0, 0, 1, 0, 0)">
   <path d="m682.666667,512c0,25.6 21.333333,42.666667 42.666666,42.666667l128,0c25.6,0 42.666667,-17.066667 42.666667,-42.666667s-21.333333,-42.666667 -42.666667,-42.666667l-128,0c-25.6,0 -42.666667,21.333333 -42.666666,42.666667zm170.666666,128l-128,0c-25.6,0 -42.666667,21.333333 -42.666666,42.666667c0,25.6 21.333333,42.666667 42.666666,42.666666l128,0c25.6,0 42.666667,-17.066667 42.666667,-42.666666s-21.333333,-42.666667 -42.666667,-42.666667zm0,170.666667l-128,0c-25.6,0 -42.666667,21.333333 -42.666666,42.666666c0,25.6 21.333333,42.666667 42.666666,42.666667l128,0c25.6,0 42.666667,-17.066667 42.666667,-42.666667s-21.333333,-42.666667 -42.666667,-42.666666z" fill="#66ba12" id="svg_1"/>
   <path d="m802.133333,174.933333c-17.066667,-29.866667 -42.666667,-46.933333 -76.8,-46.933333l-512,0c-34.133333,0 -64,17.066667 -76.8,51.2c-17.066667,29.866667 -12.8,68.266667 8.533334,89.6l196.266666,238.933333l0,256c0,21.333333 12.8,42.666667 34.133334,51.2l136.533333,72.533334c8.533333,4.266667 17.066667,4.266667 25.6,4.266666c12.8,0 21.333333,-4.266667 29.866667,-8.533333c17.066667,-12.8 29.866667,-29.866667 29.866666,-46.933333l0,-324.266667l196.266667,-238.933333c21.333333,-29.866667 21.333333,-68.266667 8.533333,-98.133334zm-268.8,281.6c-12.8,8.533333 -21.333333,21.333333 -21.333333,42.666667l0,290.133333l-85.333333,-42.666666l0,-247.466667c0,-8.533333 0,-25.6 -12.8,-38.4l-200.533334,-247.466667l512,0l0,8.533334l-192,234.666666z" fill="#66ba12" id="svg_2"/>
  </g>
  <rect fill="none" height="925.000076" id="svg_4" rx="31" ry="31" stroke="#999999" stroke-width="40" width="922.999955" x="51" y="51.49997"/>
 </g>
</svg>