<?xml version="1.0"?>
<svg width="1024" height="1024" xmlns="http://www.w3.org/2000/svg" xmlns:svg="http://www.w3.org/2000/svg" class="icon">
 <defs>
  <style type="text/css"/>
 </defs>
 <g class="layer">
  <title>Layer 1</title>
  <path d="m739.342532,674.493251l-135.502062,0c-11.014099,0 -19.919116,9.249252 -19.919116,20.662146l0,125.010408l21.689704,0l133.731474,-141.977914l0,-3.69464zm0,-41.311638l0,-65.377406c0,-11.261059 8.748788,-20.371129 19.528545,-20.37113s19.528545,9.11007 19.528545,20.37113l0,118.721929c0,5.352166 -2.017949,10.476581 -5.598183,14.297749l-145.071048,154.010799a18.877593,18.346669 0 0 1 -13.930362,6.098686l-292.368351,0c-49.602503,0 -89.831305,-41.98224 -89.831305,-93.770459l0,-546.338505c0,-51.775566 40.228802,-93.757806 89.831305,-93.757806l367.136639,0c49.602503,0 89.831305,41.98224 89.831305,93.770459l0,36.275794c0,11.261059 -8.748788,20.371129 -19.528545,20.371129s-19.528545,-9.11007 -19.528545,-20.371129l0,-36.288446c0,-29.266101 -22.731226,-53.002895 -50.774216,-53.002895l-367.136639,0c-28.04299,0 -50.774216,23.736794 -50.774216,53.015547l0,546.313199c0,29.266101 22.731226,53.002895 50.774216,53.002895l222.625409,0l0,-125.010409c0,-34.213375 26.767125,-61.961131 59.783384,-61.961131l135.502062,0zm-281.770861,-312.424798l33.510983,0l-15.753025,134.449453c-2.668901,22.825787 -9.503892,39.527583 -20.544029,50.662113c-12.250907,11.691257 -30.126035,17.536885 -53.898783,17.536885c-20.622143,0 -35.711199,-5.567265 -45.006786,-16.701795c-9.582006,-11.134531 -13.227334,-26.444509 -10.949004,-45.929938l0.755104,-6.402355l33.510983,0l-0.716047,6.123992c-2.68192,22.825787 6.001772,34.238681 26.337497,34.238681c11.170328,0 19.867039,-3.340359 25.777679,-9.742715c5.91064,-6.402355 9.686158,-16.701795 11.352594,-30.898322l15.622836,-133.336zm199.998335,-3.897085c24.059167,0 42.415999,4.732175 54.732001,14.474889c13.110163,10.299441 19.528545,26.444509 18.994765,48.156844l-33.224564,0c-1.432093,-12.247983 -5.832526,-21.155608 -12.654497,-26.44451c-6.795934,-5.567265 -17.966261,-8.072534 -32.860031,-8.072534c-12.888839,0 -22.822359,1.67018 -30.113016,5.288902c-9.087283,4.175449 -13.917343,11.134531 -15.02396,20.598881c-0.976427,8.350898 2.799091,15.309979 11.93845,20.320518c4.035899,2.226906 15.29736,6.402355 33.510983,12.247983c26.819201,8.350898 43.782997,15.031616 51.281958,19.485428c16.547187,10.299441 23.75973,24.495967 21.61159,42.867941c-2.083045,17.815249 -10.909947,32.011775 -26.428631,42.311216c-15.492645,10.021077 -36.453284,15.309979 -62.517381,15.309979c-25.204842,0 -44.42093,-4.732175 -57.348826,-14.196526c-15.805102,-11.691257 -23.108778,-30.063232 -21.572532,-55.394288l33.224564,0c0.520761,15.031616 4.686851,25.887783 12.823745,32.290138c7.368771,5.567265 19.333259,8.629261 36.23196,8.629261c14.89377,0 27.209772,-2.505269 36.36215,-7.237445c9.178416,-5.010539 14.503199,-11.412893 15.492645,-19.763791c1.236808,-10.577804 -4.374394,-18.928701 -16.260768,-25.052693c-3.775518,-1.948543 -16.430015,-6.402355 -38.275947,-13.083073c-24.29351,-7.794171 -39.395584,-13.361436 -45.019805,-16.701795c-14.672446,-9.185988 -20.843466,-22.547424 -18.78646,-40.084309c2.057006,-17.536885 11.13127,-31.455048 27.76959,-41.476126c15.466607,-9.742714 34.057782,-14.47489 56.112019,-14.474889z" fill="black" id="svg_1"/>
  <rect fill="none" height="925.000076" id="svg_2" rx="31" ry="31" stroke="#999999" stroke-width="40" width="922.999955" x="57.5" y="47.49997"/>
 </g>
</svg>