<?xml version="1.0"?>
<svg width="1024" height="1024" xmlns="http://www.w3.org/2000/svg" xmlns:svg="http://www.w3.org/2000/svg" class="icon">
 <defs>
  <style type="text/css"/>
 </defs>
 <g class="layer">
  <title>Layer 1</title>
  <path d="m855.511239,730.30125l-96.781061,-97.96025c-8.639947,-8.757 -25.06609,-9.83425 -29.744638,1.56375c-1.263549,3.058 -1.570899,11.676 -1.570899,11.676l0,66.19875l-327.634968,0a78.954768,80.342 0 0 1 -79.091368,-80.02925a78.954768,80.342 0 0 1 79.091368,-80.064l297.17318,0c81.072067,0 147.015691,-66.72 147.015691,-148.76475c0,-82.04475 -65.943623,-148.7995 -147.015691,-148.7995l-290.855433,0a116.212403,118.25425 0 0 0 -110.987455,-83.122c-64.065374,0 -116.109953,52.71575 -116.109953,117.48975c0,64.80875 52.078729,117.48975 116.109953,117.48975a116.212403,118.25425 0 0 0 110.987455,-83.122l290.855433,0a78.954768,80.342 0 0 1 79.091368,80.064a78.954768,80.342 0 0 1 -79.091368,80.02925l-297.17318,0c-81.072067,0 -147.015691,66.72 -147.015691,148.7995c0,82.01 65.909473,148.76475 147.015691,148.76475l327.634968,0l0,62.828s0,9.62575 1.570899,13.44825c4.678548,11.43275 21.104692,11.91925 29.710488,3.1275l96.815211,-97.9255a21.924291,22.3095 0 0 0 0,-31.692zm-560.401275,-393.05725c-26.568689,0 -48.151481,-21.8925 -48.151481,-48.75425s21.548641,-48.68475 48.151481,-48.68475c26.534539,0 48.151481,21.85775 48.151481,48.7195c0,26.8965 -21.616941,48.75425 -48.151481,48.75425l0,-0.03475z" fill="#66ba12" id="svg_1" transform="matrix(1, 0, 0, 1, 0, 0)"/>
  <rect fill="none" height="912.99999" id="svg_2" rx="31" ry="31" stroke="#7f7f7f" stroke-width="40" width="928.999974" x="45.999994" y="56.000076"/>
 </g>
</svg>