<?xml version="1.0"?>
<svg width="1024" height="1024" xmlns="http://www.w3.org/2000/svg" xmlns:svg="http://www.w3.org/2000/svg" xmlns:se="http://svg-edit.googlecode.com" class="icon">
 <defs>
  <style type="text/css"/>
 </defs>
 <g class="layer">
  <title>Layer 1</title>
  <path class="selected" d="m767.64418,268.777105l-527.517953,0c-39.563648,0 -71.591836,33.159895 -71.591836,72.170567l0,333.546462c0,39.011358 32.028188,72.170567 69.707474,72.170567l529.402315,0c37.679948,0 69.707474,-33.159895 69.707474,-72.170567l0,-333.546462c1.883699,-39.011358 -30.143826,-72.170567 -69.707474,-72.170567zm43.331709,72.171253l0,333.546462c0,5.851464 -1.883699,11.703613 -3.768061,17.555077l-182.747319,-189.204642l178.979258,-185.303438c3.768061,7.802409 7.536122,15.604818 7.536122,23.406541zm-43.331709,-42.912563c5.65176,0 9.419822,1.950259 15.072244,1.950259l-1.883699,0l-246.803033,257.474691c-15.072244,15.604818 -43.331709,15.604818 -60.287653,0l-246.803033,-255.523746l-1.883699,0c3.768061,-1.950259 9.419822,-1.950259 15.072244,-1.950259l527.517953,-1.950259l-0.001325,-0.000686zm-567.082264,394.014102c-1.883699,-5.851464 -3.768061,-9.752668 -3.768061,-15.604818l0,-335.496722c0,-7.802409 1.883699,-17.555077 7.536122,-23.406541l178.979258,185.303438l-182.747319,189.204642zm39.563648,27.307745c-7.536122,0 -13.187883,-1.950259 -20.724005,-5.851464l182.747319,-189.204642l52.75153,54.61549c13.187883,13.653873 30.143826,21.456281 48.984132,21.456281s35.795587,-7.802409 48.984132,-21.456281l50.867831,-52.665231l182.747319,189.204642c-5.65176,3.901204 -13.187883,5.851464 -20.724005,5.851464l-525.634254,0l0,-1.950259z" data-spm-anchor-id="a313x.7781069.0.i0" fill="#f19306" id="svg_1" transform="matrix(1, 0, 0, 1, 0, 0)"/>
  <rect fill="none" height="901.999975" id="svg_2" rx="25" ry="25" stroke="#7f7f7f" stroke-width="40" width="889.999976" x="64" y="56"/>
 </g>
</svg>