<?xml version="1.0"?>
<svg width="1024" height="1024" xmlns="http://www.w3.org/2000/svg" xmlns:svg="http://www.w3.org/2000/svg" class="icon">
 <defs>
  <style type="text/css"/>
 </defs>
 <g class="layer">
  <title>Layer 1</title>
  <rect fill="none" height="912.99999" id="svg_2" rx="31" ry="31" stroke="#7f7f7f" stroke-width="40" width="928.999974" x="48.999994" y="49.000076"/>
  <g id="svg_9" transform="matrix(1, 0, 0, 1, 0, 0)">
   <g id="svg_6">
    <path d="m806.597177,206.708677c0,38.362167 -137.048385,69.460851 -306.10614,69.460851m306.10614,-69.460851l0,0c0,38.362167 -137.048385,69.460851 -306.10614,69.460851c-169.057694,0 -306.106038,-31.098622 -306.106038,-69.460851m0,0l0,0c0,-38.362125 137.048343,-69.46083 306.106038,-69.46083c169.057755,0 306.10614,31.098706 306.10614,69.46083l0,277.84351c0,38.362125 -137.048385,69.460726 -306.10614,69.460726c-169.057694,0 -306.106038,-31.098601 -306.106038,-69.460726l0,-277.84351z" fill="none" id="svg_1" stroke="#7f0000" stroke-width="30"/>
    <path d="m807.270962,482.988501c0,38.362167 -137.048385,69.460851 -306.10614,69.460851m306.10614,-69.460851l0,0c0,38.362167 -137.048385,69.460851 -306.10614,69.460851c-169.057694,0 -306.106038,-31.098622 -306.106038,-69.460851m0,0l0,0c0,-38.362125 137.048343,-69.46083 306.106038,-69.46083c169.057755,0 306.10614,31.098706 306.10614,69.46083l0,277.84351c0,38.362125 -137.048385,69.460726 -306.10614,69.460726c-169.057694,0 -306.106038,-31.098601 -306.106038,-69.460726l0,-277.84351z" fill="none" id="svg_3" stroke="#7f0000" stroke-width="30"/>
   </g>
   <circle cx="721.898591" cy="723.436597" fill="#ffffff" id="svg_5" r="142.458344" stroke="#7f0000" stroke-width="30"/>
   <path d="m821.611831,792.989275l-50.961312,-52.032896c6.865403,-11.558809 10.891675,-25.081813 10.898827,-39.583262c-0.007151,-42.299546 -33.554655,-76.559768 -74.961615,-76.574372c-41.414111,0.014604 -74.975918,34.274826 -74.975918,76.56707c0,42.270339 33.561807,76.530561 74.975918,76.530561c14.209953,0 27.454459,-4.110935 38.775222,-11.120699l50.975615,52.040197l25.273264,-25.8266zm-161.401326,-91.62346c0.042909,-26.155183 20.760692,-47.301305 46.370074,-47.359719c25.595079,0.058415 46.327165,21.204537 46.370074,47.359719c-0.05006,26.140579 -20.774995,47.286701 -46.370074,47.345116c-25.609382,-0.058415 -46.327165,-21.204537 -46.370074,-47.345116z" fill="#7f0000" id="svg_8" stroke="#7f0000" stroke-width="0"/>
  </g>
 </g>
</svg>