<?xml version="1.0"?>
<svg width="1024" height="1024" xmlns="http://www.w3.org/2000/svg" xmlns:svg="http://www.w3.org/2000/svg" class="icon">
 <defs>
  <style type="text/css"/>
 </defs>
 <g class="layer">
  <title>Layer 1</title>
  <rect fill="none" height="925.000076" id="svg_5" rx="31" ry="31" stroke="#999999" stroke-width="40" width="922.999955" x="51.000045" y="49.99997"/>
  <g id="svg_6">
   <path d="m410.200406,899.400107c-11.153407,0 -22.069508,-3.958795 -30.256583,-11.234417l-219.27124,-197.725744c-16.730111,-15.086217 -16.730111,-39.480952 0,-54.460175c16.730111,-15.086217 43.783056,-15.086217 60.394514,0l146.418133,131.924157l0,-625.382561c0,-21.291896 19.103176,-38.518002 42.715177,-38.518002s42.715177,17.226106 42.715177,38.518002l0,718.360738c0,15.62119 -10.441488,29.637463 -26.341026,35.629152c-5.339397,1.9259 -10.916101,2.88885 -16.374151,2.88885zm176.79337,-348.159941c-23.612,0 -42.715177,-17.226106 -42.715177,-38.518002l0,-370.200797c0,-15.62119 10.441488,-29.637463 26.341026,-35.629152c16.018191,-5.991689 34.409448,-2.674861 46.512081,8.452562l200.524023,181.355593c16.611458,15.086217 16.611458,39.480952 -0.118653,54.460175s-43.783056,14.979223 -60.394514,-0.106994l-127.43361,-115.340017l0,277.008631c0,21.291896 -19.103176,38.518002 -42.715177,38.518002zm256.29106,215.058845l-149.503118,0c-23.612,0 -42.715177,-17.226106 -42.715177,-38.518002s19.103176,-38.518002 42.715177,-38.518002l149.503118,0c23.612,0 42.715177,17.226106 42.715177,38.518002s-19.103176,38.518002 -42.715177,38.518002zm0,-115.554006l-149.503118,0c-23.612,0 -42.715177,-17.226106 -42.715177,-38.518002s19.103176,-38.518002 42.715177,-38.518002l149.503118,0c23.612,0 42.715177,17.226106 42.715177,38.518002s-19.103176,38.518002 -42.715177,38.518002zm0,231.108012l-149.503118,0c-23.612,0 -42.715177,-17.226106 -42.715177,-38.518002s19.103176,-38.518002 42.715177,-38.518002l149.503118,0c23.612,0 42.715177,17.226106 42.715177,38.518002s-19.103176,38.518002 -42.715177,38.518002z" fill="#66ba12" id="svg_1"/>
   <path d="m588.061656,612.227003m-42.715177,0a42.715177,38.518002 0 1 0 85.430353,0a42.715177,38.518002 0 1 0 -85.430353,0z" fill="#66ba12" id="svg_2"/>
   <path d="m588.061656,727.781009m-42.715177,0a42.715177,38.518002 0 1 0 85.430353,0a42.715177,38.518002 0 1 0 -85.430353,0z" fill="#66ba12" id="svg_3"/>
   <path d="m586.875123,843.335015m-42.715177,0a42.715177,38.518002 0 1 0 85.430353,0a42.715177,38.518002 0 1 0 -85.430353,0z" fill="#66ba12" id="svg_4"/>
  </g>
 </g>
</svg>