<?xml version="1.0"?>
<svg width="1024" height="1024" xmlns="http://www.w3.org/2000/svg" xmlns:svg="http://www.w3.org/2000/svg" class="icon">
 <defs>
  <style type="text/css"/>
 </defs>
 <g class="layer">
  <title>Layer 1</title>
  <path d="m746.056596,694.839297l-144.410523,0c-11.724336,0 -21.22868,9.728183 -21.22868,21.732042l0,131.483512l23.115673,0l142.52353,-149.329604l0,-3.88595zm0,-43.450776l0,-68.762682c0,-11.844162 9.323969,-21.425957 20.812431,-21.425957s20.812431,9.581794 20.812431,21.425957l0,124.869412c0,5.629304 -2.150618,11.019064 -5.96623,15.038094l-154.608615,161.985558a20.118684,19.29667 0 0 1 -14.846201,6.414479l-311.589848,0c-52.863576,0 -95.737184,-44.156103 -95.737184,-98.625942l0,-574.628196c0,-54.456532 42.873609,-98.612634 95.737184,-98.612634l391.273709,0c52.863576,0 95.737184,44.156103 95.737184,98.625942l0,38.154174c0,11.844162 -9.323969,21.425957 -20.812431,21.425957s-20.812431,-9.581794 -20.812431,-21.425957l0,-38.167481c0,-30.781515 -24.22567,-55.747412 -54.112321,-55.747412l-391.273709,0c-29.886651,0 -54.112321,24.965898 -54.112321,55.76072l0,574.60158c0,30.781515 24.22567,55.747412 54.112321,55.747412l237.261717,0l0,-131.483512c0,-35.984961 28.526906,-65.16951 63.71379,-65.16951l144.410523,0zm-332.319028,-326.845653c22.172177,0 38.641748,4.298499 49.117338,13.174967c11.127714,9.355558 15.567699,24.034334 13.084082,43.783477l-30.622025,0c-0.194249,-11.138836 -3.427114,-19.243437 -9.24072,-24.047642c-5.744231,-5.057058 -15.817448,-7.346042 -29.525902,-7.346042c-11.876961,0 -21.187055,1.517117 -28.249407,4.817513c-8.741221,3.792794 -13.83333,10.114117 -15.720323,18.724423c-1.664995,7.598896 1.165496,13.933526 9.143595,18.498187c3.510364,2.009515 13.500331,5.815617 29.761777,11.125528c23.934296,7.585587 38.960871,13.667365 45.468225,17.72632c14.291203,9.368865 19.646935,22.277672 15.983947,38.99258c-3.551989,16.195894 -12.986957,29.104701 -28.235532,38.460258c-15.193075,9.116013 -34.992634,13.933526 -59.01018,13.933526c-23.226673,0 -40.500991,-4.311807 -51.545455,-12.908807c-13.500331,-10.646438 -18.536939,-27.348038 -14.804576,-50.384269l30.622024,0c-0.887997,13.667365 1.942493,23.555245 8.852221,29.370862c6.285354,5.057058 17.024569,7.851748 32.606142,7.851748c13.722329,0 25.294041,-2.288984 34.160138,-6.587484c8.921596,-4.551352 14.429952,-10.380277 16.094947,-17.965865c2.108993,-9.635027 -2.303243,-17.220614 -12.695583,-22.796686c-3.302239,-1.769971 -14.554827,-5.815617 -34.076887,-11.897395c-21.672678,-7.079882 -35.075884,-12.150248 -39.959868,-15.184483c-12.667833,-8.357454 -17.135568,-20.507701 -13.639081,-36.46405c3.496488,-15.943042 13.139581,-28.598995 29.401028,-37.715008c15.1237,-8.86316 32.703267,-13.161659 53.030075,-13.161659zm202.532707,0c28.76278,0 49.519711,8.86316 62.20142,26.829024c12.112835,16.967761 15.09595,39.498286 8.977095,67.338722c-5.93848,27.095185 -18.425939,49.106696 -36.865753,65.821605c4.967234,8.610307 10.100966,17.72632 14.846201,27.348038l-23.726172,16.701599a579.293214,555.624303 0 0 0 -14.735201,-27.840435c-15.401199,7.585587 -32.911391,11.644542 -51.920078,11.644542c-29.026405,0 -49.727836,-9.116013 -62.20142,-26.842333c-12.07121,-17.207306 -14.832326,-39.484978 -8.824471,-66.833016c6.04948,-27.587583 18.592438,-49.865255 38.211624,-67.072561c20.354558,-18.232025 44.996477,-27.095185 74.036755,-27.095185zm-5.730356,26.083774c-19.522061,0 -35.963881,6.321323 -49.561336,18.977276c-12.959208,12.150248 -21.520054,28.346142 -26.084914,49.106696c-4.495485,20.507701 -3.038615,36.716904 4.59261,48.867151c7.839349,12.4031 21.755928,18.737732 41.291864,18.737732a73.814757,70.798815 0 0 0 33.549639,-7.346042c-7.076227,-11.138836 -13.874954,-21.013408 -20.632057,-29.876568l21.603304,-16.701599a572.411236,549.023511 0 0 1 21.00668,29.357553c9.310094,-11.138836 16.178196,-25.56476 20.007684,-43.038227c4.661985,-21.252953 3.05249,-37.96786 -4.578735,-50.118107c-7.894849,-12.150248 -21.644929,-17.965865 -41.194739,-17.965865zm139.373915,-22.543833l30.622024,0l-34.104638,155.437998l101.883789,0l-5.549982,25.325215l-132.505813,0l39.65462,-180.763214z" fill="black" id="svg_1" transform="matrix(1, 0, 0, 1, 0, 0)"/>
  <rect fill="none" height="925.000076" id="svg_2" rx="31" ry="31" stroke="#999999" stroke-width="40" width="922.999955" x="43.5" y="49.49997"/>
 </g>
</svg>