<?xml version="1.0"?>
<svg width="1024" height="1024" xmlns="http://www.w3.org/2000/svg" xmlns:svg="http://www.w3.org/2000/svg" class="icon">
 <defs>
  <style type="text/css"/>
 </defs>
 <g class="layer">
  <title>Layer 1</title>
  <path d="m797.504993,668.715868a112.668725,113.485288 0 0 1 -28.153105,223.284147a112.612419,113.428574 0 0 1 -28.153105,-223.284147l0,-117.001574a28.153105,28.357143 0 0 0 -28.153105,-28.357143l-394.143467,0a28.153105,28.357143 0 0 0 -28.153105,28.357143l0,117.001574a112.668725,113.485288 0 0 1 -28.153105,223.284147a112.612419,113.428574 0 0 1 -28.153105,-223.284147l0,-145.358717a56.30621,56.714287 0 0 1 56.30621,-56.714287l197.071733,0l0,-145.358717a112.668725,113.485288 0 0 1 28.153105,-223.284147a112.612419,113.428574 0 0 1 28.153105,223.284147l0,145.358717l197.071733,0a56.30621,56.714287 0 0 1 56.30621,56.714287l0,145.358717zm-281.531048,-400.573008a56.30621,56.714287 0 1 0 0,-113.428574a56.30621,56.714287 0 0 0 0,113.428574zm-253.377943,567.142868a56.30621,56.714287 0 1 0 0,-113.428574a56.30621,56.714287 0 0 0 0,113.428574zm506.755886,0a56.30621,56.714287 0 1 0 0,-113.428574a56.30621,56.714287 0 0 0 0,113.428574z" fill="#66ba12" id="svg_1" transform="matrix(1, 0, 0, 1, 0, 0)"/>
  <rect fill="none" height="925.000076" id="svg_2" rx="31" ry="31" stroke="#999999" stroke-width="40" width="922.999955" x="51.50003" y="47.500001"/>
 </g>
</svg>